# xmcd
#
# Track frame offsets:
#	150
#	13435
#	28988
#	44106
#	58585
#	75508
#	86787
#	100549
#	113829
#	128829
#	145169
#	154409
#
# Disc length: 2235 seconds
#
# Revision: 0
# Processed by: cddbd v1.5.2PL0 Copyright (c) Steve Scherf et al.
# Submitted via: EasyCDDAExtractor 9.1.0.1
#
DISCID=a508b90c
DTITLE=Various Artist - Hillcrest 31
DYEAR=2006
DGENRE=Country
TTITLE0=Lonnie Spiker - Another Place Another Time
TTITLE1=Marlee Scott - I Fall In Love To Fast
TTITLE2=Nick Cesta - No Time Like Now
TTITLE3=Jean Stafford - Steeelin The 2 Step
TTITLE4=Arly Karlsen - Hello Darlin
TTITLE5=Clelia Adams - Settin The Woods On Fire
TTITLE6=Mike Lee - Muddy Water
TTITLE7=Sherry Lynn - Playing With The Big Boy
TTITLE8=Michael Fix - My Guitar Is My Sweetheart
TTITLE9=Debbie Bergeron - Looking For The Love
TTITLE10=Steve Roberson - Time's Up
TTITLE11=Glen Reid - Have A Good Life
EXTD=
EXTT0=
EXTT1=
EXTT2=
EXTT3=
EXTT4=
EXTT5=
EXTT6=
EXTT7=
EXTT8=
EXTT9=
EXTT10=
EXTT11=
PLAYORDER=
